<svg aria-hidden="true" style="position: absolute; width: 0; height: 0; overflow: hidden;" version="1.1"
    xmlns="http://www.w3.org/2000/svg" xmlns:xlink="http://www.w3.org/1999/xlink">
    <defs>
        <symbol id="icon-react" viewBox="0 0 33 32">
            <path
                d="M17.082 18c-0.53 0-1.039-0.211-1.414-0.586s-0.586-0.884-0.586-1.414c0-0.53 0.211-1.039 0.586-1.414s0.884-0.586 1.414-0.586c0.53 0 1.039 0.211 1.414 0.586s0.586 0.884 0.586 1.414c0 0.531-0.211 1.039-0.586 1.414s-0.884 0.586-1.414 0.586zM16.378 21.992c0.233 0.28 0.468 0.552 0.704 0.812 0.236-0.26 0.471-0.531 0.704-0.812-0.469 0.010-0.939 0.010-1.408 0zM13.718 21.825c-1.024-0.107-2.041-0.27-3.047-0.491-0.1 0.467-0.176 0.92-0.227 1.355-0.253 2.111 0.1 3.393 0.637 3.703 0.537 0.311 1.824-0.025 3.527-1.299 0.351-0.263 0.704-0.555 1.059-0.873-0.694-0.761-1.345-1.561-1.949-2.395zM23.493 21.335c-0.956 0.213-1.977 0.379-3.047 0.491-0.605 0.834-1.255 1.633-1.949 2.395 0.355 0.32 0.708 0.611 1.059 0.873 1.703 1.273 2.989 1.609 3.527 1.299 0.537-0.309 0.889-1.592 0.639-3.703-0.055-0.455-0.131-0.907-0.227-1.355h-0.001zM25.426 20.819c0.769 3.519 0.365 6.32-1.344 7.307s-4.337-0.064-7-2.489c-2.663 2.425-5.291 3.475-7 2.488s-2.113-3.787-1.345-7.307c-3.432-1.092-5.655-2.844-5.655-4.817s2.223-3.724 5.655-4.819c-0.768-3.519-0.364-6.32 1.345-7.307s4.337 0.064 7 2.489c2.663-2.425 5.291-3.475 7-2.488s2.113 3.787 1.345 7.307c3.432 1.092 5.655 2.844 5.655 4.817s-2.223 3.724-5.655 4.819h-0.001zM15.666 7.78c-0.339-0.307-0.692-0.598-1.057-0.873-1.703-1.273-2.989-1.609-3.527-1.299-0.537 0.309-0.889 1.592-0.639 3.703 0.053 0.436 0.128 0.888 0.227 1.355 1.006-0.22 2.024-0.384 3.048-0.491 0.633-0.871 1.287-1.672 1.949-2.395h-0.001zM20.446 10.175c1.069 0.112 2.091 0.279 3.047 0.491 0.1-0.467 0.176-0.92 0.227-1.355 0.253-2.111-0.1-3.393-0.637-3.703-0.537-0.311-1.824 0.025-3.527 1.299-0.366 0.275-0.719 0.566-1.059 0.873 0.663 0.723 1.316 1.524 1.949 2.395zM17.786 10.008c-0.233-0.28-0.468-0.552-0.704-0.812-0.236 0.26-0.471 0.531-0.704 0.812 0.469-0.010 0.939-0.010 1.408 0zM12.245 19.605c-0.243-0.401-0.478-0.807-0.704-1.219-0.127 0.343-0.244 0.68-0.351 1.015 0.343 0.075 0.695 0.143 1.053 0.204h0.001zM14.821 19.917c1.505 0.112 3.017 0.112 4.523 0 0.85-1.248 1.605-2.557 2.261-3.917-0.656-1.36-1.412-2.669-2.261-3.917-1.505-0.112-3.017-0.112-4.523 0-0.85 1.248-1.605 2.557-2.261 3.917 0.656 1.36 1.412 2.669 2.261 3.917zM22.623 13.613c0.127-0.343 0.244-0.68 0.351-1.015-0.349-0.076-0.701-0.144-1.053-0.204 0.243 0.401 0.477 0.808 0.703 1.219zM9.255 13.116c-0.453 0.147-0.883 0.307-1.285 0.48-1.953 0.837-2.888 1.784-2.888 2.404s0.933 1.567 2.888 2.404c0.403 0.173 0.832 0.333 1.285 0.48 0.296-0.933 0.663-1.901 1.1-2.884-0.42-0.94-0.787-1.903-1.1-2.884zM11.189 12.599c0.108 0.333 0.225 0.672 0.352 1.013 0.226-0.411 0.461-0.817 0.704-1.217-0.36 0.061-0.712 0.129-1.055 0.204h-0.001zM24.909 18.884c0.453-0.147 0.883-0.307 1.285-0.48 1.953-0.837 2.888-1.784 2.888-2.404s-0.933-1.567-2.888-2.404c-0.421-0.179-0.85-0.339-1.285-0.48-0.296 0.933-0.663 1.901-1.1 2.884 0.437 0.983 0.804 1.949 1.1 2.884zM22.975 19.401c-0.108-0.333-0.225-0.672-0.352-1.013-0.226 0.411-0.461 0.817-0.704 1.217 0.36-0.061 0.712-0.129 1.055-0.204h0.001z">
            </path>
        </symbol>
        <symbol id="icon-html" viewBox="0 0 32 32">
            <path
                d="M16.399 23.447l5.914-1.608 0.797-8.676h-10.518l-0.261-2.885h11.041l0.291-2.83h-14.528l0.814 8.548h10.010l-0.334 3.668-3.226 0.854-3.226-0.854-0.202-2.36h-2.906l0.421 4.536 5.912 1.606zM4.879 2.739h23.040l-2.077 23.040-9.443 2.56-9.443-2.56-2.077-23.040z">
            </path>
        </symbol>
        <symbol id="icon-css" viewBox="0 0 32 32">
            <path
                d="M7.439 4.199l-0.832 4.275h17.395l-0.563 2.765h-17.382l-0.845 4.262h17.395l-0.973 4.877-7.014 2.317-6.080-2.317 0.422-2.099h-4.275l-1.011 5.12 10.048 3.84 11.584-3.84 1.536-7.718 0.307-1.549 1.971-9.933h-21.683z">
            </path>
        </symbol>
        <symbol id="icon-vue" viewBox="0 0 32 32">
            <path
                d="M2.319 3.738h5.12l8.96 15.36 8.96-15.36h5.12l-14.080 24.32-14.080-24.32zM13.412 3.738l2.986 5.12 2.986-5.12h5.165l-8.151 14.080-8.151-14.080h5.165z">
            </path>
        </symbol>
        <symbol id="icon-angular" viewBox="0 0 32 32">
            <path
                d="M16.399 3.277l11.904 4.25-1.815 15.757-10.089 5.594-10.089-5.594-1.815-15.757 11.904-4.25zM16.399 6.106l-7.442 16.704h2.775l1.496-3.738h6.316l1.498 3.738h2.774l-7.416-16.704zM18.572 16.769h-4.347l2.173-5.235 2.173 5.235z">
            </path>
        </symbol>
        <symbol id="icon-gatsby" viewBox="0 0 32 32">
            <path
                d="M16.399 3.457c-7.040 0-12.8 5.76-12.8 12.8s5.76 12.8 12.8 12.8c7.040 0 12.8-5.76 12.8-12.8s-5.76-12.8-12.8-12.8zM9.268 23.388c-1.92-1.92-2.926-4.48-2.926-6.948l9.966 9.874c-2.56-0.091-5.12-1.006-7.040-2.926zM18.593 26.040l-11.977-11.977c1.006-4.48 5.029-7.863 9.783-7.863 3.383 0 6.309 1.646 8.137 4.114l-1.371 1.189c-1.556-2.103-4.023-3.476-6.766-3.476-3.566 0-6.583 2.286-7.771 5.486l10.514 10.514c2.651-0.914 4.663-3.2 5.303-5.942h-4.389v-1.828h6.4c0 4.754-3.383 8.777-7.863 9.783z">
            </path>
        </symbol>
        <symbol id="icon-flutter" viewBox="0 0 32 32">
            <path
                d="M18.843 3.637l-12.8 12.8 3.946 3.946 16.742-16.746h-7.889zM18.835 15.41l-6.88 6.939 6.876 6.886h7.922l-6.895-6.912 6.898-6.912-7.921-0.001z">
            </path>
        </symbol>
    </defs>
</svg>